<svg id="Layer_1" data-name="Layer 1" xmlns="http://www.w3.org/2000/svg" viewBox="0 0 722.89 275.21"><defs><style>.cls-1{fill:#0f2e4f;}.cls-2{fill:#dc7f27;}</style></defs><path class="cls-1" d="M315.18,308.67q0,5.1-2.27,7.54a8.15,8.15,0,0,1-6.26,2.44H246.44a41.34,41.34,0,0,0,1.49,11.47,21.9,21.9,0,0,0,4.77,8.76,20.72,20.72,0,0,0,8.43,5.49,36,36,0,0,0,12.36,1.89,68.77,68.77,0,0,0,12.86-1.06,84.88,84.88,0,0,0,9.6-2.33c2.69-.85,4.93-1.62,6.7-2.32a12.36,12.36,0,0,1,4.33-1.06,3.24,3.24,0,0,1,1.66.39,2.87,2.87,0,0,1,1.11,1.39,9.32,9.32,0,0,1,.61,2.82c.11,1.22.17,2.76.17,4.61,0,1.62,0,3-.11,4.15a26.72,26.72,0,0,1-.34,2.94,7.16,7.16,0,0,1-.66,2,7.83,7.83,0,0,1-1.17,1.61,13.45,13.45,0,0,1-3.93,2.11,63.7,63.7,0,0,1-8.21,2.6,112.18,112.18,0,0,1-11.42,2.22,94.72,94.72,0,0,1-13.75.94A73.08,73.08,0,0,1,247.82,364a41.16,41.16,0,0,1-16.57-10.09,41.91,41.91,0,0,1-9.93-17.08,80.17,80.17,0,0,1-3.27-24.17,76.83,76.83,0,0,1,3.44-23.78,49.93,49.93,0,0,1,10-18,43,43,0,0,1,15.91-11.25,54.71,54.71,0,0,1,21.12-3.88q12.42,0,21.24,3.66a38.4,38.4,0,0,1,14.47,10.14,41,41,0,0,1,8.31,15.36,66.63,66.63,0,0,1,2.66,19.29Zm-27.05-8q.33-11.74-4.71-18.46t-15.58-6.71a20.22,20.22,0,0,0-9.26,2,18.77,18.77,0,0,0-6.54,5.38,24.3,24.3,0,0,0-4,8,39.62,39.62,0,0,0-1.61,9.81Z" transform="translate(-59.5 -129.81)"/><path class="cls-1" d="M422.4,361.34a3,3,0,0,1-1.1,2.43,7.55,7.55,0,0,1-3.5,1.28,47.05,47.05,0,0,1-7,.39,47.78,47.78,0,0,1-7.26-.39,6.19,6.19,0,0,1-3.22-1.28,3.16,3.16,0,0,1-.94-2.43v-7.88a44.76,44.76,0,0,1-13.91,10.2,40.47,40.47,0,0,1-17.36,3.66,48.47,48.47,0,0,1-14.47-2.05,32.62,32.62,0,0,1-11.42-6.1,27.38,27.38,0,0,1-7.48-10,34,34,0,0,1-2.66-14,31.6,31.6,0,0,1,3.38-15,27.47,27.47,0,0,1,10.09-10.53,50.2,50.2,0,0,1,16.69-6.15,119.17,119.17,0,0,1,23.17-2H395v-6a31.4,31.4,0,0,0-.95-8.15,13.48,13.48,0,0,0-3.1-5.82,12.81,12.81,0,0,0-5.77-3.44,31,31,0,0,0-8.92-1.1,45.73,45.73,0,0,0-12.48,1.55,70.87,70.87,0,0,0-9.7,3.44c-2.81,1.25-5.15,2.4-7,3.43a10.25,10.25,0,0,1-4.6,1.56,3.3,3.3,0,0,1-2.16-.78,5.61,5.61,0,0,1-1.55-2.22,15,15,0,0,1-.95-3.55,30.08,30.08,0,0,1-.33-4.65,21.2,21.2,0,0,1,.55-5.44,8.41,8.41,0,0,1,2.11-3.6,21.13,21.13,0,0,1,5.43-3.55,64.39,64.39,0,0,1,9.1-3.6A83.4,83.4,0,0,1,366,256.83a83.73,83.73,0,0,1,32.6,1.22,33.44,33.44,0,0,1,13.58,7A27.18,27.18,0,0,1,420,277.18a56.93,56.93,0,0,1,2.43,17.63ZM395,319H384.37a56.83,56.83,0,0,0-11.53,1,22,22,0,0,0-7.76,3,12.3,12.3,0,0,0-4.38,4.82,14.5,14.5,0,0,0-1.39,6.49q0,6.21,3.94,9.76t10.92,3.55a20.41,20.41,0,0,0,10.81-3,44.53,44.53,0,0,0,10-8.76Z" transform="translate(-59.5 -129.81)"/><path class="cls-1" d="M513.77,271.3q0,4-.22,6.54a19.88,19.88,0,0,1-.67,4,3.85,3.85,0,0,1-1.16,2,2.91,2.91,0,0,1-1.83.55,6.09,6.09,0,0,1-2-.38c-.74-.26-1.57-.54-2.49-.83s-1.94-.58-3-.84a16.66,16.66,0,0,0-3.66-.38,12.35,12.35,0,0,0-4.66.94,19.69,19.69,0,0,0-4.82,2.94,35.75,35.75,0,0,0-5.21,5.32,87.34,87.34,0,0,0-5.82,8.2V361a3,3,0,0,1-.67,1.94,4.83,4.83,0,0,1-2.27,1.39,19.52,19.52,0,0,1-4.27.83c-1.77.18-4,.28-6.76.28s-5-.1-6.77-.28a19.52,19.52,0,0,1-4.27-.83,4.83,4.83,0,0,1-2.27-1.39,3,3,0,0,1-.66-1.94V262.1a3.4,3.4,0,0,1,.55-1.94,4,4,0,0,1,2-1.39,16.07,16.07,0,0,1,3.71-.83,49.51,49.51,0,0,1,5.71-.28,52.27,52.27,0,0,1,5.88.28,13.51,13.51,0,0,1,3.6.83,4,4,0,0,1,1.83,1.39,3.4,3.4,0,0,1,.55,1.94v12.31a78.85,78.85,0,0,1,7.32-9.15,41.19,41.19,0,0,1,6.54-5.71,20.36,20.36,0,0,1,6.21-2.94,23.67,23.67,0,0,1,6.21-.83c1,0,2,.05,3.11.16a30,30,0,0,1,3.44.56,22,22,0,0,1,3.1.89,6.09,6.09,0,0,1,1.94,1.05,3.42,3.42,0,0,1,.89,1.22,10,10,0,0,1,.5,1.83,30,30,0,0,1,.33,3.49Q513.77,267.3,513.77,271.3Z" transform="translate(-59.5 -129.81)"/><path class="cls-1" d="M748.57,364.77l-12,35q-1,2.78-5.44,4a52.18,52.18,0,0,1-13,1.22,51,51,0,0,1-7.09-.39,10,10,0,0,1-4-1.27,2.92,2.92,0,0,1-1.44-2.22,7.19,7.19,0,0,1,.67-3.22l13.19-33.15a7.36,7.36,0,0,1-2.6-2,9.4,9.4,0,0,1-1.72-2.94l-34-90.92a18.79,18.79,0,0,1-1.44-5.93,4.05,4.05,0,0,1,1.33-3.22,8.71,8.71,0,0,1,4.49-1.6,61.82,61.82,0,0,1,8.37-.45q4.77,0,7.54.17a13.35,13.35,0,0,1,4.32.83,4.69,4.69,0,0,1,2.33,2,20.25,20.25,0,0,1,1.55,3.94l23.29,66.19h.33l21.29-67.52a7.55,7.55,0,0,1,1.72-3.83,7.2,7.2,0,0,1,3.49-1.38,54.48,54.48,0,0,1,8.54-.45,57.89,57.89,0,0,1,7.93.45,9.42,9.42,0,0,1,4.65,1.66,4,4,0,0,1,1.5,3.27,15.84,15.84,0,0,1-.89,4.82Z" transform="translate(-59.5 -129.81)"/><path class="cls-2" d="M618,212.6a23.37,23.37,0,1,0-23.47,23.16A23.28,23.28,0,0,0,618,212.6Z" transform="translate(-59.5 -129.81)"/><path class="cls-2" d="M675.06,283.92a49.37,49.37,0,0,0-9-15.21,47.17,47.17,0,0,0-13.32-10.61c-5.1-2.74-3.36-19.17-16.48,15.62,4.71-1.75.91-1,16.48-15.62,23.78-22.34,25.58-64.8,18.12-83.7-12.08-30.57-50.33-44.74-76.35-44.58-5.26,0-43.37.06-66.62,27.85a15.25,15.25,0,0,0-3.7,10.45V353.67q0,7.24,3.7,10.45a13.47,13.47,0,0,0,9.13,3.2h56.58a158.37,158.37,0,0,0,23.28-1.56,104.21,104.21,0,0,0,19.65-4.85,76.57,76.57,0,0,0,16.87-8.39,56,56,0,0,0,13.16-12.17,55.1,55.1,0,0,0,8.63-16.29,63.52,63.52,0,0,0,3.13-20.56A55.23,55.23,0,0,0,675.06,283.92Zm-44.17,33.64a25.55,25.55,0,0,1-7.07,9.21,31,31,0,0,1-10.69,5.6,52.67,52.67,0,0,1-15.22,1.89H566.66V283.31l28,35.67c-6.75-10.12-33.06-65.74-38.45-76.67a175.08,175.08,0,0,1-7.77-18.42c-4-11.16-2.4-22.11,2.67-32.53a48.13,48.13,0,0,1,71.79-18.2c13.7,9.89,20.43,23.69,20,40.65-.17,6.9-2.81,13.29-5.55,19.54-6.66,15.19-33.47,71.94-42.71,85.63,27.74-34.3,29.11-37,29.11-37s5.59,5.9,7.23,9.79A33.61,33.61,0,0,1,633.44,305,29.6,29.6,0,0,1,630.89,317.56Z" transform="translate(-59.5 -129.81)"/><path class="cls-1" d="M200.24,355.19a13.12,13.12,0,0,1-1.06,5.41,11.26,11.26,0,0,1-2.83,3.95,10.92,10.92,0,0,1-4.22,2.31,17.45,17.45,0,0,1-4.95.73H172.41a30.15,30.15,0,0,1-8-.93,15.78,15.78,0,0,1-6.2-3.36,29.79,29.79,0,0,1-5.48-6.59q-2.64-4.17-5.93-10.75l-42.47-79.81q-3.7-7.12-7.52-15.36t-6.86-16H89.7q.52,9.5.8,18.93t.26,19.45v89.3a4.08,4.08,0,0,1-.73,2.38,5.36,5.36,0,0,1-2.5,1.78,20,20,0,0,1-4.82,1.12,63.06,63.06,0,0,1-7.78.39,61.77,61.77,0,0,1-7.65-.39,18.87,18.87,0,0,1-4.75-1.12,5,5,0,0,1-2.37-1.78,4.42,4.42,0,0,1-.66-2.38V209q0-6.19,3.63-9.3a13.19,13.19,0,0,1,8.9-3.1h18.6a35.48,35.48,0,0,1,8.44.86,17.31,17.31,0,0,1,6.13,2.83,22,22,0,0,1,5.08,5.48,70.63,70.63,0,0,1,4.88,8.64l33.24,62.39q2.9,5.67,5.74,11.14t5.47,10.95q2.64,5.47,5.15,10.75t4.88,10.55h.13q-.39-9.23-.59-19.25t-.2-19.13V201.78a3.84,3.84,0,0,1,.79-2.37,6.43,6.43,0,0,1,2.64-1.85,17.62,17.62,0,0,1,4.88-1.12,74.41,74.41,0,0,1,7.78-.33,71.39,71.39,0,0,1,7.52.33,15.1,15.1,0,0,1,4.68,1.12,5.4,5.4,0,0,1,2.31,1.85,4.38,4.38,0,0,1,.66,2.37Z" transform="translate(-59.5 -129.81)"/></svg>